<?xml version="1.0" encoding="utf-8"?>
<!-- Generator: Adobe Illustrator 24.0.2, SVG Export Plug-In . SVG Version: 6.00 Build 0)  -->
<svg version="1.1" xmlns="http://www.w3.org/2000/svg" xmlns:xlink="http://www.w3.org/1999/xlink" x="0px" y="0px"
	 viewBox="0 0 512 102.9" style="enable-background:new 0 0 512 102.9;" xml:space="preserve">
<style type="text/css">
	.st0{fill:#1A2944;}
	.st1{font-family:'ArialRoundedMTBold';}
	.st2{font-size:55.4196px;}
	.st3{fill:#FFFFFF;}
	.st4{fill:#FE8B13;stroke:#1A2944;stroke-width:2;stroke-miterlimit:10;}
</style>
<g id="Layer_1">
	<text transform="matrix(1 0 0 1 89.8525 69.5352)" class="st0 st1 st2">The Tutorbook</text>
</g>
<g id="Layer_2">
	<g>
		<g>
			<path class="st0" d="M79.5,44.9c-0.2,0-0.4-0.2-0.9-0.6l0.1-0.1c-0.1-0.2-0.3-0.4-0.6-0.7c-2.2-2.3-0.2-7.4-0.1-7.6l0.8,0.3
				c0,0-1.9,4.8-0.1,6.7c1.3,1.4,1.4,1.5,1.1,1.8C79.7,44.9,79.6,44.9,79.5,44.9z"/>
		</g>
		<g>
			<path class="st0" d="M80.3,44.7c-0.2,0-0.5-0.2-0.9-0.5l0.1-0.1c-0.2-0.1-0.4-0.3-0.7-0.6c-2.5-2.1-1-7.3-1-7.6l0.8,0.2
				c0,0-1.4,5,0.7,6.7c1.5,1.2,1.6,1.3,1.3,1.6C80.5,44.7,80.4,44.7,80.3,44.7z"/>
		</g>
		<g>
			<path class="st0" d="M80.5,44.9c-0.2,0-0.5-0.2-0.9-0.6l0.1-0.1c-0.2-0.2-0.4-0.4-0.7-0.6c-2.4-2.2-0.6-7.4-0.5-7.6l0.8,0.3
				c0,0-1.6,4.9,0.3,6.7c1.4,1.3,1.5,1.4,1.2,1.7C80.7,44.8,80.6,44.9,80.5,44.9z"/>
		</g>
		<g>
			<path class="st0" d="M81.4,44.5c-0.2,0-0.5-0.2-0.9-0.5l0.1-0.1c-0.2-0.1-0.4-0.3-0.7-0.5c-2.6-1.9-1.4-7.3-1.4-7.5l0.8,0.2
				c0,0.1-1.1,5,1,6.6c1.6,1.2,1.6,1.2,1.4,1.6C81.6,44.4,81.5,44.5,81.4,44.5z"/>
		</g>
		<g>
			<path class="st0" d="M82.4,44.2c-0.2,0-0.5-0.1-0.9-0.4l0-0.1c-0.2-0.1-0.4-0.3-0.8-0.5c-2.8-1.6-2.2-7.1-2.2-7.3l0.8,0.1
				c0,0.1-0.5,5.1,1.8,6.5c1.7,1,1.7,1,1.5,1.4C82.7,44.2,82.6,44.2,82.4,44.2z"/>
		</g>
		<g>
			<path class="st0" d="M83.2,44c-0.2,0-0.5-0.1-0.9-0.3l0-0.1c-0.2-0.1-0.4-0.2-0.8-0.4c-2.9-1.5-2.5-7-2.5-7.2l0.8,0.1
				c0,0.1-0.4,5.1,2,6.4c1.7,0.9,1.8,1,1.6,1.4C83.4,43.9,83.3,44,83.2,44z"/>
		</g>
		<g>
			<path class="st0" d="M83.9,43.8c-0.2,0-0.5-0.1-0.9-0.3l0-0.1c-0.2-0.1-0.5-0.2-0.8-0.4c-3-1.3-3-6.8-3-7l0.8,0
				c0,0.1,0.1,5.1,2.5,6.2c1.8,0.8,1.9,0.8,1.7,1.2C84.2,43.7,84.1,43.8,83.9,43.8z"/>
		</g>
		<g>
			<path class="st0" d="M84.6,43.6c-0.2,0-0.5-0.1-0.8-0.2l0-0.1c-0.2-0.1-0.5-0.2-0.9-0.3c-3.1-1-3.7-6.4-3.7-6.7l0.8-0.1
				c0,0.1,0.6,5.1,3.1,5.9c1.9,0.6,1.9,0.6,1.8,1.1C85,43.5,84.8,43.6,84.6,43.6z"/>
		</g>
		<g>
			<polygon class="st0" points="27.4,18.5 52.4,26.9 75.2,18.3 51.6,10.1 			"/>
		</g>
		<g>
			<path class="st0" d="M78.2,35.9c-0.2-3.8,1.3-6.3,1.5-6.7c1.1-2.3,1.2-4.2,0.4-5.9c-1.6-3.2-6.3-4.2-6.4-4.3l0.3-1.2
				c0.2,0,5.4,1.1,7.3,4.9c1,2,0.8,4.4-0.4,7l0,0.1c0,0-1.5,2.3-1.3,6L78.2,35.9z"/>
		</g>
		<g>
			<circle class="st0" cx="79.1" cy="35.9" r="1.5"/>
		</g>
		<g>
			<polygon class="st3" points="36.5,20.7 29.7,18.3 50.9,10.9 51,11.3 30.9,18.3 36.6,20.3 			"/>
		</g>
		<polygon class="st4" points="43.8,25.8 47.4,62.5 58,62.5 61.7,25.9 53.2,28.8 		"/>
		<g>
			<path class="st0" d="M50.2,69.7c0-1.5,1.1-2.7,2.5-2.8l0-3.6h-5.5c0,0,0.6,4-2.3,7.6c-1,1.2-0.9,1.5-0.9,1.5s7,10.6,7.3,14.9
				l0.4,3c0.6,2.7,1.4,2.4,1.4,2.4l-0.2-20.2C51.3,72.4,50.2,71.2,50.2,69.7z"/>
			<path class="st0" d="M61.1,70.9c-2.2-2.4-2.7-7.6-2.7-7.6h-5.2l0,3.6c1.4,0.1,2.5,1.3,2.5,2.8c0,1.5-1.1,2.7-2.6,2.8l-0.1,20.2
				c0,0.1,0.7,0.3,1.3-2.4l0.4-3C55,83,62,72.4,62,72.4S62.1,72.1,61.1,70.9z"/>
			<path class="st3" d="M55.7,69.7c0-1.5-1.1-2.7-2.5-2.8c-0.1,0-0.2,0-0.2,0c-0.1,0-0.2,0-0.3,0c-1.4,0.2-2.5,1.3-2.5,2.8
				c0,1.5,1.1,2.7,2.5,2.8c0.1,0,0.2,0,0.2,0c0.1,0,0.1,0,0.2,0C54.6,72.4,55.7,71.2,55.7,69.7z"/>
		</g>
	</g>
</g>
</svg>
